#!OML:ASF H:\Terrain\Patient Classification 1\PLAYGROUND\JustinFriday\JustinFriday.ASF
:FULLY-SPECIFIED
:DEGREES
979
root -19.4891 27.4067 -12.9382 356.062 45.8677 -12.8014
lowerback 31.4643 -0.769514 4.78414
upperback 7.37169 0.555457 -3.24973
thorax -8.14269 0.378449 -6.23099
lowerneck 4.95735 -16.3989 -11.8178
upperneck -21.2188 -18.6519 39.315
head -1.14646 -11.4648 14.8431
rclavicle 1.35174e-014 -1.74931e-014
rhumerus 33.7187 42.582 -52.6183
rradius 83.282
rwrist 2.82933
rhand -16.7706 -23.3346
rfingers 7.12502
rthumb 9.45665 -53.1024
lclavicle 1.35174e-014 -1.74931e-014
lhumerus 8.27124 -0.357804 57.1755
lradius 58.9604
lwrist -11.2323
lhand -15.3643 -13.9664
lfingers 7.12502
lthumb 10.8134 15.7352
rfemur -25.9406 -18.1026 35.3615
rtibia 29.6562
rfoot -2.00271 -16.3449
rtoes 18.7322
lfemur -58.0228 11.1395 -17.4159
ltibia 90.6586
lfoot -41.6693 -2.54198
ltoes 23.9669
980
root -19.4881 27.3938 -12.9112 355.349 45.7098 -13.4182
lowerback 30.875 -0.587181 4.51044
upperback 7.87636 0.718212 -2.53797
thorax -7.91109 0.441017 -5.77965
lowerneck 5.67618 -17.4402 -10.2107
upperneck -23.3766 -19.5419 38.4
head -2.02077 -12.1594 14.3663
rclavicle -1.59028e-015 -1.59028e-014
rhumerus 34.2999 43.5377 -50.7995
rradius 83.9363
rwrist 1.04806
rhand -19.3683 -25.6387
rfingers 7.12502
rthumb 6.94961 -55.5046
lclavicle -1.59028e-015 -1.59028e-014
lhumerus 7.99602 -0.17486 57.3303
lradius 58.7342
lwrist -11.0188
lhand -15.3243 -14.1812
lfingers 7.12502
lthumb 10.852 15.5184
rfemur -25.6101 -18.5259 36.0256
rtibia 29.7773
rfoot -2.33539 -16.545
rtoes 16.8782
lfemur -57.6362 11.3914 -16.8254
ltibia 90.5672
lfoot -41.7348 -1.51917
ltoes 21.4774
981
root -19.4754 27.3355 -12.9182 355.172 45.4817 -13.5364
lowerback 30.6985 -0.64627 4.54561
upperback 8.19596 0.70648 -2.03051
thorax -7.47383 0.460632 -5.20221
lowerneck 4.97523 -17.413 -11.1382
upperneck -23.6948 -19.5494 38.5099
head -1.82573 -12.0697 14.4565
rclavicle 2.14687e-014 1.27222e-014
rhumerus 35.2753 43.7626 -49.1362
rradius 84.0826
rwrist 1.18935
rhand -18.9134 -25.6357
rfingers 7.12502
rthumb 7.3887 -55.4867
lclavicle 2.14687e-014 1.27222e-014
lhumerus 8.67919 1.15809 59.0213
lradius 57.6297
lwrist -11.8495
lhand -15.2524 -15.0243
lfingers 7.12502
lthumb 10.9213 14.6717
rfemur -25.8048 -18.6789 36.1869
rtibia 30.1564
rfoot -3.21386 -16.864
rtoes 15.3992
lfemur -57.9486 11.4167 -17.2886
ltibia 90.469
lfoot -41.3376 4.75704
ltoes 10.9177
982
root -19.4899 27.3275 -12.8776 354.958 44.8896 -13.3282
lowerback 30.6976 -0.20877 3.61834
upperback 8.39558 1.01594 -1.73499
thorax -7.24036 0.624906 -4.43025
lowerneck 4.90331 -17.1418 -11.2038
upperneck -23.793 -19.1662 38.0522
head -2.0033 -11.8357 14.3787
rclavicle -5.56597e-015 -2.06736e-014
rhumerus 36.3418 43.9394 -46.5622
rradius 84.9311
rwrist -0.356515
rhand -18.2513 -25.7171
rfingers 7.12502
rthumb 8.02783 -55.5446
lclavicle -5.56597e-015 -2.06736e-014
lhumerus 8.7864 1.69917 59.5286
lradius 57.1687
lwrist -12.1865
lhand -15.0502 -15.6804
lfingers 7.12502
lthumb 11.1163 14.0052
rfemur -24.9515 -17.9098 36.0359
rtibia 29.9224
rfoot -4.36211 -17.4807
rtoes 17.8368
lfemur -57.2701 12.0275 -16.9806
ltibia 90.3469
lfoot -41.5423 4.64752
ltoes 10.3261
983
root -19.4788 27.314 -12.8717 355.124 44.6874 -12.7967
lowerback 30.5229 -0.127851 3.31226
upperback 8.45049 1.01289 -1.83345
thorax -7.1014 0.630528 -4.35553
lowerneck 4.5191 -16.2122 -12.4076
upperneck -22.1832 -18.284 38.3006
head -1.50808 -11.1935 14.6374
rclavicle -8.74653e-014 3.18055e-014
rhumerus 36.2135 44.2307 -47.6288
rradius 84.0971
rwrist -0.625701
rhand -17.5592 -26.1644
rfingers 7.12502
rthumb 8.69577 -55.9652
lclavicle -8.74653e-014 3.18055e-014
lhumerus 8.26399 1.63082 59.091
lradius 57.3015
lwrist -11.9182
lhand -15.0364 -16.1395
lfingers 7.12502
lthumb 11.1296 13.5453
rfemur -24.8407 -18.1251 35.6204
rtibia 30.1414
rfoot -5.0417 -17.4416
rtoes 20.0411
lfemur -56.9364 11.8351 -17.3335
ltibia 90.2347
lfoot -41.1099 6.72696
ltoes 6.53109
984
root -19.4653 27.4016 -12.8528 355.186 44.6108 -12.3486
lowerback 30.3251 -0.0991459 3.10479
upperback 8.43198 0.968203 -1.96627
thorax -7.03555 0.611581 -4.36345
lowerneck 4.62193 -15.9476 -12.9496
upperneck -21.6437 -18.0803 38.5616
head -1.31948 -11.0476 14.8334
rclavicle -3.73715e-014 4.77083e-015
rhumerus 36.3283 44.3349 -45.8724
rradius 85.448
rwrist -2.84079
rhand -16.9505 -27.1196
rfingers 7.12502
rthumb 9.28307 -56.8952
lclavicle -3.73715e-014 4.77083e-015
lhumerus 7.16178 1.00164 57.9974
lradius 57.9532
lwrist -10.8975
lhand -15.1682 -16.5455
lfingers 7.12502
lthumb 11.0026 13.1461
rfemur -24.2302 -18.5778 35.2304
rtibia 29.5803
rfoot -4.9462 -17.4587
rtoes 18.3938
lfemur -56.1601 13.4702 -17.6802
ltibia 89.8793
lfoot -40.8184 5.00095
ltoes 6.08062
985
root -19.4367 27.3237 -12.8363 355.207 44.4952 -12.1778
lowerback 30.5528 -0.252021 3.62694
upperback 8.00975 0.872019 -2.44087
thorax -7.60975 0.53369 -5.19093
lowerneck 5.39695 -15.7153 -12.7959
upperneck -21.4162 -17.7863 38.7291
head -1.47605 -10.9705 15.0227
rclavicle 6.12257e-014 -4.92986e-014
rhumerus 34.1943 45.0743 -48.2335
rradius 85.7527
rwrist -2.48961
rhand -15.8051 -26.4109
rfingers 7.12502
rthumb 10.3882 -56.1343
lclavicle 6.12257e-014 -4.92986e-014
lhumerus 6.56948 0.169197 57.2429
lradius 57.8535
lwrist -10.6785
lhand -15.2323 -17.0928
lfingers 7.12502
lthumb 10.9406 12.6021
rfemur -24.2542 -18.879 35.1408
rtibia 29.8234
rfoot -5.059 -17.6452
rtoes 17.0879
lfemur -56.1235 11.9126 -17.4879
ltibia 90.3367
lfoot -38.2781 12.0737
ltoes -9.42073
986
root -19.4207 27.3898 -12.8456 355.612 44.2267 -11.6567
lowerback 31.4678 -0.468986 4.40563
upperback 6.86991 0.749089 -3.58079
thorax -8.67786 0.432438 -6.46221
lowerneck 6.38299 -15.7462 -12.0077
upperneck -21.1933 -17.7925 38.7757
head -1.69789 -11.0913 15.0334
rclavicle -7.4743e-014 -4.77083e-015
rhumerus 31.7958 44.9131 -49.8801
rradius 86.8045
rwrist -3.6363
rhand -14.624 -25.262
rfingers 7.12502
rthumb 11.5274 -54.9251
lclavicle -7.4743e-014 -4.77083e-015
lhumerus 5.84806 -1.15767 56.0799
lradius 57.7282
lwrist -10.498
lhand -15.3654 -17.6717
lfingers 7.12502
lthumb 10.8123 12.03
rfemur -24.1511 -19.1003 34.8245
rtibia 29.7447
rfoot -5.31507 -17.7306
rtoes 17.0947
lfemur -55.6799 12.0382 -17.2221
ltibia 90.5926
lfoot -42.2807 -1.51324
ltoes 19.584
987
root -19.4065 27.3311 -12.8378 356.428 43.7345 -10.7815
lowerback 31.6816 -0.332857 4.16595
upperback 6.44034 0.786402 -3.97952
thorax -9.2407 0.417185 -6.79141
lowerneck 6.27822 -16.2183 -11.7105
upperneck -21.0414 -18.5161 38.4911
head -1.52857 -11.4281 14.7037
rclavicle -8.74653e-015 4.92986e-014
rhumerus 29.9073 45.0632 -51.8342
rradius 86.8813
rwrist -3.47514
rhand -13.5901 -23.94
rfingers 7.12502
rthumb 12.5243 -53.5446
lclavicle -8.74653e-015 4.92986e-014
lhumerus 5.23434 -1.52856 55.7545
lradius 57.7419
lwrist -10.4497
lhand -15.6571 -17.7743
lfingers 7.12502
lthumb 10.531 11.9419
rfemur -24.6613 -19.4858 34.5126
rtibia 30.2818
rfoot -5.07174 -17.2789
rtoes 15.1689
lfemur -55.9682 11.8357 -18.2033
ltibia 90.6988
lfoot -41.9963 4.23826
ltoes 9.76523
988
root -19.4022 27.3459 -12.8338 357.293 43.0113 -9.95945
lowerback 31.3835 0.0696058 3.29616
upperback 6.41304 1.00602 -3.94781
thorax -9.13256 0.536016 -6.35628
lowerneck 5.31134 -16.964 -11.3675
upperneck -21.0561 -19.5998 37.8392
head -1.22564 -11.8596 14.0597
rclavicle -2.06736e-014 3.18055e-014
rhumerus 30.5001 45.1215 -49.1086
rradius 89.0527
rwrist -5.11786
rhand -12.7485 -23.9574
rfingers 7.12502
rthumb 13.3356 -53.5106
lclavicle -2.06736e-014 3.18055e-014
lhumerus 5.80538 -0.575466 56.9872
lradius 56.7299
lwrist -11.682
lhand -15.905 -17.5804
lfingers 7.12502
lthumb 10.2918 12.1478
rfemur -24.7898 -19.744 34.3761
rtibia 30.105
rfoot -4.4767 -16.8174
rtoes 12.3579
lfemur -56.0746 11.907 -18.1879
ltibia 90.9687
lfoot -42.4471 -0.662361
ltoes 18.0751
